<svg xmlns="http://www.w3.org/2000/svg" xmlns:xlink="http://www.w3.org/1999/xlink" version="1.1" x="0px" y="0px" viewBox="0 0 24 30" enable-background="new 0 0 24 24" xml:space="preserve"><g><g><path d="M10.963,6.332c-0.199,0-0.388-0.12-0.466-0.317c-0.428-1.092-1.599-1.105-1.61-1.105c-0.275,0-0.499-0.225-0.499-0.501    c0-0.275,0.225-0.499,0.5-0.499c0.046,0.001,1.857,0,2.541,1.74c0.101,0.257-0.026,0.547-0.283,0.648    C11.086,6.321,11.024,6.332,10.963,6.332z"/><path d="M13.928,9.627c-0.276,0-0.5-0.224-0.5-0.5c0-3.381-2.751-6.131-6.132-6.131s-6.131,2.75-6.131,6.131    c0,0.276-0.224,0.5-0.5,0.5s-0.5-0.224-0.5-0.5c0-3.932,3.199-7.131,7.131-7.131c3.933,0,7.132,3.199,7.132,7.131    C14.428,9.404,14.205,9.627,13.928,9.627z"/><path d="M9.819,9.952c-0.276,0-0.5-0.224-0.5-0.5V8.92c0-1.115-0.907-2.022-2.022-2.022c-1.114,0-2.021,0.907-2.021,2.022v0.531    c0,0.276-0.224,0.5-0.5,0.5s-0.5-0.224-0.5-0.5V8.92c0-1.667,1.355-3.022,3.021-3.022c1.667,0,3.022,1.355,3.022,3.022v0.531    C10.319,9.728,10.095,9.952,9.819,9.952z"/></g><path d="M17.175,18.697h-2.358c-0.15,0-0.294-0.068-0.389-0.186s-0.132-0.271-0.101-0.418l0.528-2.496   c-0.454-0.356-0.724-0.899-0.724-1.492c0-1.048,0.853-1.9,1.9-1.9s1.9,0.853,1.9,1.9c0,0.606-0.291,1.17-0.767,1.524l0.499,2.468   c0.029,0.147-0.008,0.3-0.104,0.416C17.467,18.629,17.326,18.697,17.175,18.697z M15.434,17.697h1.13l-0.448-2.215   c-0.046-0.229,0.072-0.46,0.285-0.556c0.323-0.146,0.532-0.468,0.532-0.821c0-0.496-0.404-0.9-0.9-0.9s-0.9,0.404-0.9,0.9   c0,0.345,0.193,0.655,0.505,0.809c0.205,0.101,0.315,0.328,0.269,0.552L15.434,17.697z"/><path d="M21.587,22.003H10.478c-1.239,0-2.247-1.008-2.247-2.247V9.598c0-0.276,0.224-0.5,0.5-0.5h14.604   c0.276,0,0.5,0.224,0.5,0.5v10.158C23.834,20.996,22.827,22.003,21.587,22.003z M9.231,10.098v9.658   c0,0.688,0.56,1.247,1.247,1.247h11.109c0.688,0,1.247-0.56,1.247-1.247v-9.658H9.231z"/></g><text x="0" y="39" fill="#000000" font-size="5px" font-weight="bold" font-family="'Helvetica Neue', Helvetica, Arial-Unicode, Arial, Sans-serif">Created by Atif Arshad</text><text x="0" y="44" fill="#000000" font-size="5px" font-weight="bold" font-family="'Helvetica Neue', Helvetica, Arial-Unicode, Arial, Sans-serif">from the Noun Project</text></svg>