<svg xmlns="http://www.w3.org/2000/svg" xmlns:xlink="http://www.w3.org/1999/xlink" xmlns:xodm="http://www.corel.com/coreldraw/odm/2003" xml:space="preserve" version="1.1" style="shape-rendering:geometricPrecision;text-rendering:geometricPrecision;image-rendering:optimizeQuality;" viewBox="0 0 180.93 221.9125" x="0px" y="0px" fill-rule="evenodd" clip-rule="evenodd"><defs><style type="text/css">
   
    .fil1 {fill:black}
    .fil0 {fill:black;fill-rule:nonzero}
   
  </style></defs><g><path class="fil0" d="M23.73 0l133.46 0c13.06,0 23.73,10.67 23.73,23.73l0 130.07c0,13.06 -10.67,23.73 -23.73,23.73l-133.46 0c-13.04,0 -23.73,-10.69 -23.73,-23.73l0 -130.07c0,-13.06 10.68,-23.73 23.73,-23.73zm-17.06 32.78l167.59 0 0 -9.05c0,-9.37 -7.69,-17.06 -17.06,-17.06l-133.46 0c-9.39,0 -17.06,7.67 -17.06,17.06l0 9.05zm167.59 6.67l-167.59 0 0 114.35c0,9.38 7.68,17.06 17.06,17.06l133.46 0c9.37,0 17.06,-7.69 17.06,-17.06l0 -114.35z"/><path class="fil0" d="M22.89 61.06c-1.84,0 -3.33,-1.5 -3.33,-3.33 0,-1.84 1.5,-3.33 3.33,-3.33l12.83 0c1.84,0 3.33,1.5 3.33,3.33 0,1.84 -1.5,3.33 -3.33,3.33l-12.83 0zm24.73 0c-1.84,0 -3.33,-1.5 -3.33,-3.33 0,-1.84 1.5,-3.33 3.33,-3.33l17.85 0c1.84,0 3.33,1.5 3.33,3.33 0,1.84 -1.5,3.33 -3.33,3.33l-17.85 0zm29.75 0c-1.84,0 -3.33,-1.5 -3.33,-3.33 0,-1.84 1.5,-3.33 3.33,-3.33l15.31 0c1.84,0 3.33,1.5 3.33,3.33 0,1.84 -1.5,3.33 -3.33,3.33l-15.31 0z"/><path class="fil0" d="M22.89 76.9c-1.84,0 -3.33,-1.5 -3.33,-3.33 0,-1.84 1.5,-3.33 3.33,-3.33l28.94 0c1.84,0 3.33,1.5 3.33,3.33 0,1.84 -1.5,3.33 -3.33,3.33l-28.94 0zm40.84 0c-1.84,0 -3.33,-1.5 -3.33,-3.33 0,-1.84 1.5,-3.33 3.33,-3.33l28.95 0c1.84,0 3.33,1.5 3.33,3.33 0,1.84 -1.5,3.33 -3.33,3.33l-28.95 0z"/><path class="fil0" d="M22.89 92.74c-1.84,0 -3.33,-1.5 -3.33,-3.33 0,-1.84 1.5,-3.33 3.33,-3.33l9.77 0c1.84,0 3.33,1.5 3.33,3.33 0,1.84 -1.5,3.33 -3.33,3.33l-9.77 0zm21.67 0c-1.84,0 -3.33,-1.5 -3.33,-3.33 0,-1.84 1.5,-3.33 3.33,-3.33l48.12 0c1.84,0 3.33,1.5 3.33,3.33 0,1.84 -1.5,3.33 -3.33,3.33l-48.12 0z"/><path class="fil0" d="M22.89 108.57c-1.84,0 -3.33,-1.5 -3.33,-3.33 0,-1.84 1.5,-3.33 3.33,-3.33l28.94 0c1.84,0 3.33,1.5 3.33,3.33 0,1.84 -1.5,3.33 -3.33,3.33l-28.94 0zm40.84 0c-1.84,0 -3.33,-1.5 -3.33,-3.33 0,-1.84 1.5,-3.33 3.33,-3.33l28.95 0c1.84,0 3.33,1.5 3.33,3.33 0,1.84 -1.5,3.33 -3.33,3.33l-28.95 0z"/><path class="fil0" d="M22.89 124.41c-1.84,0 -3.33,-1.5 -3.33,-3.33 0,-1.84 1.5,-3.33 3.33,-3.33l18.27 0c1.84,0 3.33,1.5 3.33,3.33 0,1.84 -1.5,3.33 -3.33,3.33l-18.27 0zm30.17 0c-1.84,0 -3.33,-1.5 -3.33,-3.33 0,-1.84 1.5,-3.33 3.33,-3.33l74.81 0c1.84,0 3.33,1.5 3.33,3.33 0,1.84 -1.5,3.33 -3.33,3.33l-74.81 0zm86.7 0c-1.84,0 -3.33,-1.5 -3.33,-3.33 0,-1.84 1.5,-3.33 3.33,-3.33l18.28 0c1.84,0 3.33,1.5 3.33,3.33 0,1.84 -1.5,3.33 -3.33,3.33l-18.28 0z"/><path class="fil0" d="M22.89 140.25c-1.84,0 -3.33,-1.5 -3.33,-3.33 0,-1.84 1.5,-3.33 3.33,-3.33l39.19 0c1.84,0 3.33,1.5 3.33,3.33 0,1.84 -1.5,3.33 -3.33,3.33l-39.19 0zm51.09 0c-1.84,0 -3.33,-1.5 -3.33,-3.33 0,-1.84 1.5,-3.33 3.33,-3.33l84.07 0c1.84,0 3.33,1.5 3.33,3.33 0,1.84 -1.5,3.33 -3.33,3.33l-84.07 0z"/><path class="fil0" d="M22.89 156.09c-1.84,0 -3.33,-1.5 -3.33,-3.33 0,-1.84 1.5,-3.33 3.33,-3.33l61.63 0c1.84,0 3.33,1.5 3.33,3.33 0,1.84 -1.5,3.33 -3.33,3.33l-61.63 0zm73.53 0c-1.84,0 -3.33,-1.5 -3.33,-3.33 0,-1.84 1.5,-3.33 3.33,-3.33l61.63 0c1.84,0 3.33,1.5 3.33,3.33 0,1.84 -1.5,3.33 -3.33,3.33l-61.63 0z"/><path class="fil1" d="M26.37 15.22c2.49,0 4.51,2.02 4.51,4.51 0,2.49 -2.02,4.5 -4.51,4.5 -2.49,0 -4.5,-2.02 -4.5,-4.5 0,-2.49 2.02,-4.51 4.5,-4.51z"/><path class="fil1" d="M47.62 15.22c2.49,0 4.51,2.02 4.51,4.51 0,2.49 -2.02,4.5 -4.51,4.5 -2.48,0 -4.5,-2.02 -4.5,-4.5 0,-2.49 2.02,-4.51 4.5,-4.51z"/><path class="fil1" d="M68.87 15.22c2.48,0 4.5,2.02 4.5,4.51 0,2.49 -2.02,4.5 -4.5,4.5 -2.49,0 -4.51,-2.02 -4.51,-4.5 0,-2.49 2.02,-4.51 4.51,-4.51z"/><path class="fil0" d="M136.7 59.56c0.45,-1.78 2.26,-2.85 4.04,-2.4 1.78,0.45 2.85,2.26 2.4,4.04l-10.37 40.37c-0.45,1.78 -2.26,2.85 -4.04,2.4 -1.78,-0.45 -2.85,-2.26 -2.4,-4.04l10.37 -40.37z"/><path class="fil0" d="M118.25 63.11c1.25,-1.34 3.35,-1.42 4.7,-0.17 1.34,1.25 1.42,3.35 0.17,4.7l-10.69 11.48 10.75 12.11c1.21,1.37 1.09,3.48 -0.29,4.69 -1.37,1.21 -3.48,1.09 -4.69,-0.29l-12.69 -14.29c-1.19,-1.26 -1.21,-3.26 -0.01,-4.54l12.75 -13.69z"/><path class="fil0" d="M145.45 67.64c-1.25,-1.34 -1.17,-3.45 0.17,-4.7 1.34,-1.25 3.45,-1.17 4.7,0.17l12.75 13.69c1.2,1.29 1.18,3.28 -0.01,4.54l-12.69 14.29c-1.21,1.37 -3.31,1.5 -4.69,0.29 -1.37,-1.21 -1.5,-3.31 -0.29,-4.69l10.75 -12.11 -10.69 -11.48z"/></g><text x="0" y="192.53" fill="#000000" font-size="5px" font-weight="bold" font-family="'Helvetica Neue', Helvetica, Arial-Unicode, Arial, Sans-serif">Created by Iga</text><text x="0" y="197.53" fill="#000000" font-size="5px" font-weight="bold" font-family="'Helvetica Neue', Helvetica, Arial-Unicode, Arial, Sans-serif">from the Noun Project</text></svg>